name C:\Users\u0101727\Documents\MyRepositories\paper-ad\predictivesimulations_2d/Results/PredSim_2D/IK_c17.mot
datacolumns 11
datarows 34
range 0.63317802 0.94976703
endheader
time	pelvis_tilt	pelvis_tx	pelvis_ty	hip_flexion_l	hip_flexion_r	knee_angle_l	knee_angle_r	ankle_angle_l	ankle_angle_r	lumbar_extension	
          0.63317802	        -15.09106390	          0.85495637	          0.89984408	         25.73071599	         11.40737092	        -10.65555716	        -40.88643364	          8.50034392	         -0.31212588	         10.35251088	
          0.64277162	        -15.10813749	          0.86692937	          0.90128093	         24.81204588	         12.68012860	        -10.40885996	        -41.78299823	          8.60287955	          0.66430210	         10.31418390	
          0.65236523	        -15.12272693	          0.87884656	          0.90247412	         23.87811630	         13.98535075	        -10.13734006	        -42.57166716	          8.74616299	          1.72067770	         10.27186693	
          0.66195884	        -15.13481946	          0.89071558	          0.90342695	         22.93335102	         15.31800926	         -9.84877978	        -43.24429523	          8.92431299	          2.83934018	         10.22588285	
          0.67155244	        -15.14453925	          0.90254372	          0.90415005	         21.98163058	         16.67211042	         -9.55022575	        -43.79336751	          9.13081033	          4.00248877	         10.17670890	
          0.68114605	        -15.15204864	          0.91433720	          0.90466045	         21.02715023	         18.04185548	         -9.24925945	        -44.21116801	          9.35796594	          5.19228604	         10.12476901	
          0.69073966	        -15.15748946	          0.92610153	          0.90497894	         20.07448212	         19.42174845	         -8.95373121	        -44.48989060	          9.59774678	          6.39090999	         10.07040587	
          0.70033326	        -15.16100754	          0.93784270	          0.90512699	         19.12842899	         20.80528891	         -8.67202406	        -44.62260394	          9.84222648	          7.58055583	         10.01399851	
          0.70992687	        -15.16282466	          0.94956774	          0.90512490	         18.19220117	         22.18557726	         -8.40970286	        -44.60366237	         10.08410253	          8.74354295	          9.95608032	
          0.71952048	        -15.16325907	          0.96128499	          0.90499078	         17.26659595	         23.55571904	         -8.16803955	        -44.42902847	         10.31675374	          9.86249801	          9.89739481	
          0.72911408	        -15.16259245	          0.97300319	          0.90474017	         16.35305296	         24.90782339	         -7.94988413	        -44.09669884	         10.53340259	         10.92068346	          9.83867265	
          0.73870769	        -15.16106987	          0.98473053	          0.90438616	         15.45371802	         26.23393428	         -7.75883536	        -43.60570872	         10.72799471	         11.90266001	          9.78053310	
          0.74830129	        -15.15893366	          0.99647605	          0.90393941	         14.57015535	         27.52524165	         -7.59790398	        -42.95908200	         10.89591516	         12.79503036	          9.72371197	
          0.75789490	        -15.15644283	          1.00824822	          0.90340901	         13.70329645	         28.77371734	         -7.46913258	        -42.16136926	         11.03421533	         13.58756356	          9.66890189	
          0.76748851	        -15.15386181	          1.02005363	          0.90280298	         12.85400730	         29.97317984	         -7.37359805	        -41.21689788	         11.14176337	         14.27417379	          9.61658658	
          0.77708211	        -15.15143030	          1.03189858	          0.90212781	         12.02299153	         31.11791903	         -7.31295657	        -40.13236612	         11.21929072	         14.85325696	          9.56720792	
          0.78667572	        -15.14937038	          1.04378743	          0.90138880	         11.21056770	         32.20497424	         -7.28812237	        -38.91327651	         11.26962897	         15.32763675	          9.52095658	
          0.79626933	        -15.14789407	          1.05572378	          0.90058968	         10.41662354	         33.23299350	         -7.29949173	        -37.56460607	         11.29725031	         15.70358808	          9.47789779	
          0.80586293	        -15.14721980	          1.06771101	          0.89973235	          9.64090733	         34.20137519	         -7.34707581	        -36.09174840	         11.30746371	         15.98947850	          9.43801170	
          0.81545654	        -15.14762993	          1.07975365	          0.89881690	          8.88280747	         35.10862475	         -7.43031188	        -34.50222930	         11.30551310	         16.19445153	          9.40137411	
          0.82505014	        -15.14951518	          1.09185819	          0.89784215	          8.14127394	         35.95127696	         -7.54813907	        -32.80378246	         11.29498362	         16.32762792	          9.36829400	
          0.83464375	        -15.15319589	          1.10403278	          0.89680695	          7.41595734	         36.72476002	         -7.70085571	        -31.00787690	         11.27667622	         16.39779084	          9.33915761	
          0.84423736	        -15.15873933	          1.11628942	          0.89571397	          6.70775724	         37.42240158	         -7.89214507	        -29.14069405	         11.24897095	         16.41308360	          9.31455431	
          0.85383096	        -15.16616982	          1.12864640	          0.89457567	          6.01871327	         38.03127687	         -8.12826704	        -27.23642249	         11.20581040	         16.38079472	          9.29578765	
          0.86342457	        -15.17550391	          1.14112527	          0.89341379	          5.35199445	         38.53558985	         -8.41637059	        -25.32728411	         11.13474646	         16.30731832	          9.28458155	
          0.87301818	        -15.18642089	          1.15374487	          0.89225088	          4.71202439	         38.92588087	         -8.76495923	        -23.44115506	         11.01948459	         16.19804521	          9.28212686	
          0.88261178	        -15.19812346	          1.16651979	          0.89110488	          4.10407708	         39.20198851	         -9.18390793	        -21.59990418	         10.84349607	         16.05710428	          9.28882945	
          0.89220539	        -15.20940108	          1.17946289	          0.88999009	          3.53342492	         39.37080759	         -9.68350229	        -19.82518437	         10.59251081	         15.88710146	          9.30461759	
          0.90179900	        -15.21903656	          1.19258802	          0.88891864	          3.00493887	         39.43955721	        -10.27339484	        -18.13181920	         10.25369442	         15.68923706	          9.32958408	
          0.91139260	        -15.22588701	          1.20590965	          0.88789971	          2.52305821	         39.41504609	        -10.96216393	        -16.53156097	          9.81490766	         15.46340949	          9.36396644	
          0.92098621	        -15.22869916	          1.21944193	          0.88693856	          2.09240726	         39.30486688	        -11.75881976	        -15.04144608	          9.26530585	         15.20833553	          9.40790283	
          0.93057981	        -15.22621082	          1.23319929	          0.88603625	          1.71850896	         39.11406251	        -12.67365493	        -13.67603012	          8.59391184	         14.92199238	          9.46168576	
          0.94017342	        -15.21701720	          1.24719530	          0.88518850	          1.40727001	         38.84741984	        -13.71759623	        -12.45522836	          7.79030008	         14.60149176	          9.52556739	
          0.94976703	        -15.19956160	          1.26144172	          0.88438416	          1.16434276	         38.51029203	        -14.90084320	        -11.40782282	          6.84698048	         14.24302996	          9.59969873	
